# xmcd
#
# Track frame offsets:
#	150
#	15323
#	30666
#	44702
#	61677
#	75864
#	92698
#	105690
#	118690
#	140702
#	154448
#	171768
#	184398
#	197476
#	214898
#	250793
#	262878
#
# Disc length: 3705 seconds
#
# Revision: 0
# Processed by: cddbd v1.5.1PL0 Copyright (c) Steve Scherf et al.
# Submitted via: audiograbber 1.83.01
#
DISCID=e30e7711
DTITLE=De Randfichten - Dr Holzmichel
DYEAR=2004
DGENRE=Volksmusik
TTITLE0=Halli, Hallo...
TTITLE1=Lebt denn der alte Holzmichel noch...?
TTITLE2=Grüß Gott, Mei Arzgebirge
TTITLE3=Steig ein, mir fahrn in de Tschechei
TTITLE4=Griene Kliess und Schwammebrie
TTITLE5=Mir sei kaane Engel
TTITLE6=´S Arzgebirge im Blut
TTITLE7=De Spackfettbemm (Live)
TTITLE8=Morgen ist alles Vorüber
TTITLE9=Hab Dank dafür
TTITLE10=Susi
TTITLE11=Kann Staapilz find ich net
TTITLE12=Es wird schon alles wieder gut
TTITLE13=Drham ist Drham
TTITLE14=Dr Holzmichel (Live)
TTITLE15=Bis bald, ihr Leit
TTITLE16=Lebt denn der alte Holzmichl noch...? Karaoke Version
EXTD=
EXTT0=
EXTT1=
EXTT2=
EXTT3=
EXTT4=
EXTT5=
EXTT6=
EXTT7=
EXTT8=
EXTT9=
EXTT10=
EXTT11=
EXTT12=
EXTT13=
EXTT14=
EXTT15=
EXTT16=
PLAYORDER=
